<svg xmlns="http://www.w3.org/2000/svg" version="1.1" xmlns:xlink="http://www.w3.org/1999/xlink" xmlns:svgjs="http://svgjs.dev/svgjs" width="1000" height="1000" viewBox="0 0 1000 1000"><g transform="matrix(1,0,0,1,-0.18157889889442913,0.4048582995951051)"><svg viewBox="0 0 247 247" data-background-color="#ffffff" preserveAspectRatio="xMidYMid meet" height="1000" width="1000" xmlns="http://www.w3.org/2000/svg" xmlns:xlink="http://www.w3.org/1999/xlink"><g id="tight-bounds" transform="matrix(1,0,0,1,0.0448499880269253,-0.09999999999999432)"><svg viewBox="0 0 246.91031249999997 247.2" height="247.2" width="246.91031249999997"><g><svg viewBox="0 0 246.91031249999997 247.2" height="247.2" width="246.91031249999997"><g><svg viewBox="0 0 246.91031249999997 247.2" height="247.2" width="246.91031249999997"><g id="textblocktransform"><svg viewBox="0 0 246.91031249999997 247.2" height="247.2" width="246.91031249999997" id="textblock"><g><svg viewBox="0 0 246.91031249999997 247.2" height="247.2" width="246.91031249999997"><g transform="matrix(1,0,0,1,0,0)"><svg width="246.91031249999997" viewBox="1.9449001805610002 -36.82 37.455099819439 37.5" height="247.2" data-palette-color="#ed1703"><path d="M3.03 0.68L1.95 0.1 1.95-10.94Q1.9-16.99 2.34-34.03L2.34-34.03 2.34-36.04Q2.34-36.57 2.54-36.67L2.54-36.67 19.34-36.67Q19.58-36.67 20.32-34.81 21.07-32.96 22.13-30.04 23.19-27.12 23.63-26.03L23.63-26.03 27.05-17.09 27.05-26.56Q27.05-27.78 27.11-31.04 27.17-34.3 27.15-36.13L27.15-36.13Q27.15-36.82 31.05-36.82L31.05-36.82Q32.28-36.82 34.4-36.77 36.52-36.72 37.01-36.72L37.01-36.72 38.87-36.72Q39.26-36.72 39.26-36.57L39.26-36.57Q39.4-29.79 39.4-17.14L39.4-17.14 39.4-0.2Q39.23 0.44 37.84 0.44L37.84 0.44 37.21 0.44Q35.94 0.44 33.47 0.49 31.01 0.54 29.74 0.54L29.74 0.54 22.56 0.54Q22.22 0.42 21.14-2.54L21.14-2.54Q20-5.74 17.72-11.79 15.45-17.85 15.19-18.55L15.19-18.55Q15.19-17.11 15.16-14.26 15.14-11.4 15.14-9.96L15.14-9.96Q15.14-8.89 15.19-6.74 15.23-4.59 15.23-3.52L15.23-3.52 15.23-0.44Q15.23 0.68 14.26 0.68L14.26 0.68 3.03 0.68ZM39.26-36.52L39.26-36.62 39.26-36.52Z" opacity="1" transform="matrix(1,0,0,1,0,0)" fill="#ed1703" class="wordmark-text-0" data-fill-palette-color="primary" id="text-0"></path></svg></g></svg></g></svg></g></svg></g><g></g></svg></g><defs></defs></svg><rect width="246.91031249999997" height="247.2" fill="none" stroke="none" visibility="hidden"></rect></g></svg></g></svg>